<svg width="611" height="319" viewBox="0 0 611 319" fill="none" xmlns="http://www.w3.org/2000/svg">
<path ref="path" d="M288.5 32.5C288.5 112.543 285.427 168.615 285.305 200M285.305 200C285.24 216.648 286.006 226.35 288.5 229C296.5 237.5 306.921 234.965 314.5 232.447C328.36 227.843 361.018 220.895 396.5 217.803C429.731 214.908 465.439 215.396 490.5 224.361C516.864 233.792 546.5 231.861 561.5 224.361L587.5 208M285.305 200V275.5V287V298.5C282.5 315 265.5 287 257 289H175H135.5C135.5 289 105.331 289 86 289C66.6691 289 36.5 289 36.5 289" stroke="#FF6E02" stroke-width="30"/>
<circle cx="289" cy="30" r="30" fill="#FF6D00"/>
<path d="M610.573 185.75L600.577 226.489L569.834 195.745L610.573 185.75Z" fill="#FF6E02"/>
<path d="M38.333 267.855L36.66 309.769L0.404589 285.772L38.333 267.855Z" fill="#FF6E02"/>
</svg>
